<svg xmlns="http://www.w3.org/2000/svg" viewBox="0 0 194.87 102.21">
    <defs>
        <mask id="a" x="137.32" y="0" width="57.55" height="44.16" maskUnits="userSpaceOnUse">
            <path fill="#fff" d="M137.32.79h57.55v44.16h-57.55V.79z" transform="translate(0 -.79)"/>
        </mask>
    </defs>
    <path d="M144.15 44.21h-13.48a3.17 3.17 0 0 0-3 2.4l-2.6 10.21s-.61 2.39 1.78 2.39h13.48a3.17 3.17 0 0 0 3-2.4l2.6-10.2s.61-2.4-1.78-2.4" fill="#00304e"/>
    <g mask="url(#a)">
        <path d="M193.32 11.31a16.73 16.73 0 0 0-4.53-6 20.78 20.78 0 0 0-7.35-3.9A33.47 33.47 0 0 0 171.36 0h-28.85a3 3 0 0 0-2.86 2.45s-1.31 6.26-2.3 10.55a1.86 1.86 0 0 0 1.72 2.29 19.94 19.94 0 0 1 5.83 1.49c3.11 1.2 3.55 2 6.18 2.56h.26a1.94 1.94 0 0 0 1.67-1 .21.21 0 0 1 0-.06 2.1 2.1 0 0 0 .21-.61 5.5 5.5 0 0 0 .07-1c0-6.08 5-11.63 11.56-12.28 7.73-.76 13.92 6.46 13.54 12.67a.63.63 0 0 0 .37.63l4.45 1.72a.7.7 0 0 1-.12 1.33l-5.5.33a3.5 3.5 0 0 0-1.56 1.75c-1.2 2.72.41 5.42 0 6.73-.38 1.1-2.75 0-3.64 1-1.47 1.63-2.55 2.89-2.55 2.89-1.88 2.32-3.91.36-4.63-.19l-1.28-1c-3.08-2.4-7.87-3.36-13.05 8.6 0 0-2.11 3.41.32 3.41h12.89A42 42 0 0 0 176 42.58l1-.31a28.6 28.6 0 0 0 9.58-5.16 23.13 23.13 0 0 0 6.13-7.9 23.5 23.5 0 0 0 2.16-10.1 19 19 0 0 0-1.55-7.76" fill="#00304e"/>
    </g>
    <path d="M133 89.9c.09-.32 0-.5-.36-.5H127a.61.61 0 0 0-.63.5l-3.08 11.62c-.08.32 0 .5.37.5h5.64a.61.61 0 0 0 .63-.5l.38-1.42c.09-.34 0-.5-.37-.5h-3.54l.74-2.79h3.25a.61.61 0 0 0 .64-.51l.37-1.4c.09-.34-.05-.51-.37-.51h-3.25l.68-2.57H132a.6.6 0 0 0 .64-.5zm-8.76 0c.09-.34 0-.5-.37-.5h-1.7a.76.76 0 0 0-.67.4l-5.11 7.92-.91-7.92c0-.27-.17-.4-.46-.4h-1.7a.61.61 0 0 0-.63.5l-3.08 11.62c-.08.32 0 .5.37.5h1.62a.6.6 0 0 0 .63-.5l1.47-5.56.64 5.66a.41.41 0 0 0 .46.4h.9a.76.76 0 0 0 .68-.4l3.62-5.66-1.47 5.56c-.08.32 0 .5.37.5h1.62a.61.61 0 0 0 .63-.5zm-13.69 0c.09-.34 0-.5-.37-.5h-1.7a.76.76 0 0 0-.67.4l-5.11 7.92-.91-7.92a.39.39 0 0 0-.45-.4H99.6a.61.61 0 0 0-.63.5l-3.08 11.62c-.08.32 0 .5.37.5h1.62a.6.6 0 0 0 .63-.5l1.49-5.56.64 5.66a.41.41 0 0 0 .46.4h.9a.76.76 0 0 0 .68-.4l3.64-5.66-1.48 5.56c-.08.32.05.5.37.5h1.62a.61.61 0 0 0 .63-.5zm-20.96 7.38l2-4-.07 4zm4.59-7.45a.38.38 0 0 0-.44-.43h-2.15a.73.73 0 0 0-.67.43l-6.23 11.62c-.17.36-.08.57.29.57h1.68a.73.73 0 0 0 .67-.43l1.06-2h3.15v2a.38.38 0 0 0 .43.43h1.69a.53.53 0 0 0 .58-.57zm-14.63 5.12l.83-3.13h1c1 0 1.58.43 1.31 1.42l-.07.29a1.93 1.93 0 0 1-2.07 1.42zm3.45 7.07c.37 0 .6-.23.53-.59l-.79-4.66a4.79 4.79 0 0 0 2.48-3.17l.11-.42c.68-2.57-.75-3.78-3.21-3.78H78.9a.62.62 0 0 0-.63.5l-3.08 11.62c-.09.34 0 .5.37.5h1.62a.6.6 0 0 0 .63-.5l1.1-4.14H80l.74 4.26a.42.42 0 0 0 .48.38zM72.09 89.21c-2.74 0-4.92 1.89-5.71 4.86l-.87 3.28c-.79 3 .42 4.86 3.14 4.86s4.83-1.87 5.67-5l.34-1.28c.09-.34 0-.51-.37-.51h-3.42a.61.61 0 0 0-.63.51l-.37 1.36c-.08.32 0 .51.37.51h1.27c-.43 1.37-1.15 2-2.24 2s-1.5-.88-1.07-2.5l.8-3.09c.42-1.61 1.3-2.52 2.4-2.52.95 0 1.33.59 1.14 1.81 0 .33.07.5.38.5h1.69a.58.58 0 0 0 .62-.52c.47-2.65-.72-4.27-3.14-4.27zm-11.34 2.43c1.11 0 1.6.89 1.17 2.52l-.83 3.12c-.43 1.62-1.38 2.5-2.5 2.5s-1.6-.88-1.17-2.5l.82-3.07c.43-1.68 1.39-2.57 2.51-2.57zm.64-2.43a6 6 0 0 0-5.79 4.86l-.87 3.28c-.79 3 .5 4.86 3.22 4.86a6.05 6.05 0 0 0 5.81-4.86l.87-3.28c.79-2.99-.5-4.86-3.24-4.86zm-13.17 5.74l.78-3.13h1c1 0 1.57.43 1.31 1.42l-.08.29a1.93 1.93 0 0 1-2.06 1.42zm3.45 7.07a.47.47 0 0 0 .52-.59l-.78-4.66a4.78 4.78 0 0 0 2.47-3.17l.12-.39c.68-2.57-.75-3.78-3.2-3.78h-3.23a.63.63 0 0 0-.64.5l-3.07 11.62c-.09.34 0 .5.36.5h1.62a.6.6 0 0 0 .64-.5l1.09-4.14h1.12l.75 4.26c0 .27.19.38.48.38zm-12.46-10.2h1.15c1 0 1.58.44 1.32 1.42l-.1.36a1.93 1.93 0 0 1-2.06 1.42h-1.15zm-1.47-2.42a.61.61 0 0 0-.64.5L34 101.52c-.09.32 0 .5.36.5H36a.6.6 0 0 0 .63-.5l1.08-4.07H39a5 5 0 0 0 5.2-3.8l.12-.47c.68-2.55-.75-3.78-3.19-3.78z" fill="#00304e"/>
    <path d="M136.74 70.21c-2.74 0-4.93 1.89-5.72 4.86l-.86 3.28c-.8 3 .41 4.86 3.13 4.86s4.84-1.87 5.68-5l.34-1.28c.09-.34 0-.51-.37-.51h-3.42a.62.62 0 0 0-.64.51l-.36 1.36c-.09.32 0 .51.37.51h1.27c-.43 1.37-1.15 2-2.24 2s-1.51-.88-1.08-2.5l.83-3.12c.43-1.61 1.3-2.52 2.41-2.52.95 0 1.33.59 1.14 1.81-.06.34.07.5.38.5h1.69a.58.58 0 0 0 .62-.52c.44-2.62-.75-4.24-3.17-4.24zm-6.53.69c.09-.34 0-.5-.37-.5h-1.63a.61.61 0 0 0-.64.5l-1.7 6.42-1.42-6.55a.44.44 0 0 0-.49-.37h-1.57a.61.61 0 0 0-.63.5l-3.08 11.62c-.08.32 0 .5.37.5h1.62a.6.6 0 0 0 .63-.5l1.7-6.42 1.42 6.55a.44.44 0 0 0 .49.37h1.58a.62.62 0 0 0 .64-.5zm-10.59 0c.09-.34-.05-.5-.37-.5h-1.62a.61.61 0 0 0-.63.5l-3.08 11.62c-.08.32 0 .5.37.5h1.62a.61.61 0 0 0 .63-.5zm-4.74 0c.09-.34 0-.5-.37-.5h-1.64a.61.61 0 0 0-.63.5l-1.18 4.44h-3.19l1.18-4.44c.09-.34 0-.5-.37-.5h-1.62a.61.61 0 0 0-.63.5l-3.08 11.62c-.08.32.05.5.37.5h1.62a.61.61 0 0 0 .63-.5l1.26-4.76h3.19l-1.26 4.76c-.08.32 0 .5.37.5h1.63a.62.62 0 0 0 .64-.5zm-14.52-.69c-2.73 0-4.92 1.89-5.71 4.86l-.87 3.28c-.78 2.99.42 4.86 3.14 4.86 2.42 0 4.5-1.69 5.46-4.47.12-.34 0-.53-.35-.53h-1.67a.67.67 0 0 0-.65.51c-.49 1.4-1.21 2.06-2.2 2.06s-1.47-.88-1-2.5l.79-3.07c.42-1.61 1.3-2.52 2.37-2.52s1.36.66 1.11 2.06c-.06.34.06.51.38.51h1.67a.59.59 0 0 0 .62-.53c.55-2.83-.66-4.52-3.09-4.52zm-13.51 8.07l2.06-4-.07 4zm4.6-7.44a.38.38 0 0 0-.44-.44h-2.15a.73.73 0 0 0-.67.44L82 82.45c-.18.36-.08.57.28.57h1.69a.73.73 0 0 0 .67-.43l1.06-2h3.15v2a.38.38 0 0 0 .43.43h1.69a.53.53 0 0 0 .58-.57zm-12.59 1.8c1.12 0 1.6.9 1.17 2.52l-.82 3.12c-.43 1.62-1.39 2.5-2.5 2.5s-1.61-.88-1.18-2.5l.83-3.07c.43-1.67 1.38-2.57 2.5-2.57zm.65-2.43a6 6 0 0 0-5.8 4.86l-.87 3.28c-.79 3 .5 4.86 3.22 4.86a6.05 6.05 0 0 0 5.81-4.86l.87-3.28c.79-2.99-.49-4.86-3.23-4.86zm-10.51 0c-2.74 0-4.92 1.89-5.71 4.86l-.87 3.28c-.79 3 .41 4.86 3.14 4.86 2.42 0 4.5-1.69 5.46-4.47.12-.34 0-.53-.35-.53H69a.65.65 0 0 0-.65.51c-.49 1.4-1.22 2.06-2.2 2.06s-1.47-.88-1-2.5l.74-3.07c.42-1.61 1.3-2.52 2.37-2.52s1.36.66 1.11 2.06c-.06.34.06.51.38.51h1.67a.59.59 0 0 0 .62-.53c.52-2.83-.67-4.52-3.04-4.52zm-14 8.37l5.17-7.59c.25-.36.16-.59-.23-.59h-1.71a.72.72 0 0 0-.67.4l-3 4.59L54 70.8c0-.29-.18-.4-.46-.4h-1.75c-.39 0-.6.23-.54.59l1.16 7.59-1 3.94c-.08.32 0 .5.37.5h1.64a.61.61 0 0 0 .63-.5zm-5-7.68c.09-.32 0-.5-.36-.5H44a.6.6 0 0 0-.63.5l-3.11 11.62c-.09.32.05.5.36.5h5.65a.61.61 0 0 0 .63-.5l.38-1.42c.09-.34-.05-.5-.37-.5h-3.52l.74-2.79h3.25a.61.61 0 0 0 .64-.51l.37-1.4c.09-.34 0-.51-.37-.51h-3.25l.68-2.56H49a.61.61 0 0 0 .64-.51zm-12.57 5.07l3.91-5c.27-.35.19-.6-.19-.6h-1.81a.83.83 0 0 0-.68.35l-4.09 5.18 1.33-5c.09-.34 0-.5-.36-.5h-1.62a.61.61 0 0 0-.64.5L30.2 82.52c-.08.32.05.5.37.5h1.62a.61.61 0 0 0 .63-.5l.65-2.45L35 78.38l.74 4.26c0 .27.2.38.48.38H38c.39 0 .6-.23.54-.59zm-10.21-5.76c-2.74 0-4.93 1.89-5.71 4.86l-.87 3.28c-.79 3 .41 4.86 3.13 4.86 2.42 0 4.51-1.69 5.46-4.47.13-.34 0-.53-.34-.53h-1.67a.65.65 0 0 0-.65.51c-.49 1.4-1.22 2.06-2.2 2.06s-1.47-.88-1-2.5l.78-3.07c.43-1.61 1.31-2.52 2.37-2.52s1.37.66 1.11 2.06c-.05.34.07.51.38.51h1.67a.6.6 0 0 0 .63-.53c.52-2.83-.67-4.52-3.09-4.52zm-11.35 2.43c1.12 0 1.6.9 1.17 2.52l-.83 3.12c-.43 1.62-1.38 2.5-2.5 2.5s-1.6-.88-1.17-2.5l.83-3.07c.43-1.67 1.38-2.57 2.5-2.57zm.64-2.43a6 6 0 0 0-5.79 4.86l-.87 3.28c-.79 3 .5 4.86 3.22 4.86a6.05 6.05 0 0 0 5.81-4.86l.87-3.28c.79-2.99-.5-4.86-3.24-4.86zM10 70.9c.09-.34 0-.5-.37-.5H8a.61.61 0 0 0-.64.5l-2.2 8.12c-.3 1.14-.81 1.76-1.6 1.76s-1-.52-.79-1.57c.06-.34-.06-.51-.38-.51H.75a.59.59 0 0 0-.62.51c-.52 2.73.55 4 2.74 4 2.42 0 4.23-1.55 5-4.25zM100.18 45.53a16.77 16.77 0 0 1-5.69-.92 13.07 13.07 0 0 1-4.41-2.55 11.37 11.37 0 0 1-2.89-4 12.5 12.5 0 0 1-1-5.15 15.13 15.13 0 0 1 1.45-6.7 17.1 17.1 0 0 1 4-5.33 18.56 18.56 0 0 1 6-3.56 20.45 20.45 0 0 1 7.21-1.27h22.51a3.13 3.13 0 0 0 2.94-2.51l2.6-10.86s.6-2.5-1.74-2.5h-23.72a44 44 0 0 0-14.93 2.54 37.89 37.89 0 0 0-12.21 7 33.72 33.72 0 0 0-8.25 10.8A31.22 31.22 0 0 0 69 34.31a27.42 27.42 0 0 0 2.06 10.67 25.24 25.24 0 0 0 5.82 8.52A26.84 26.84 0 0 0 86 59.21a32.41 32.41 0 0 0 11.76 2h18.58a3.13 3.13 0 0 0 2.94-2.51l2.55-10.67s.6-2.5-1.74-2.5zM67.52.21H42.94a4.16 4.16 0 0 0-4 3.09l-2.39 9.69s-.73 3.12 2.45 3.12h7.64c1.61 0 1.18 1.79 1.18 1.79l-1.93 8-1.3 5.41c-3.41 14.3-16.24 14.3-16.24 14.3H9.15a4.1 4.1 0 0 0-3.93 3.11l-2.15 9.32s-.72 3.11 2.49 3.11h1.17a1.39 1.39 0 0 0 .19.06h15.42c.75 0 1.47 0 2.2-.06H25q31.86-1.08 38-27.66l7-29.76S70.73.21 67.52.21" fill="#fefefe"/>
</svg>
