<?xml version="1.0" standalone="no"?>
<!DOCTYPE svg PUBLIC "-//W3C//DTD SVG 20010904//EN"
 "http://www.w3.org/TR/2001/REC-SVG-20010904/DTD/svg10.dtd">
<svg version="1.0" xmlns="http://www.w3.org/2000/svg"
 width="512.000000pt" height="512.000000pt" viewBox="0 0 512.000000 512.000000"
 preserveAspectRatio="xMidYMid meet">
<metadata>
Created by potrace 1.11, written by Peter Selinger 2001-2013
</metadata>
<g transform="translate(0.000000,512.000000) scale(0.100000,-0.100000)"
fill="#000000" stroke="none">
<path d="M1020 3363 c-34 -14 -54 -43 -69 -98 -36 -141 -61 -246 -61 -259 0
-9 9 -25 20 -36 18 -18 33 -20 144 -20 89 0 127 -4 134 -13 11 -12 7 -32 -52
-284 -28 -119 -44 -169 -72 -228 -53 -112 -146 -195 -265 -236 -60 -21 -83
-22 -371 -24 -374 -2 -348 9 -388 -161 -11 -49 -23 -98 -26 -109 -14 -55 -14
-111 1 -130 14 -18 29 -19 298 -19 317 0 434 7 557 34 382 82 611 288 714 641
13 47 27 98 30 114 7 36 24 112 71 310 118 498 119 506 72 521 -39 13 -705 11
-737 -3z"/>
<path d="M2727 3374 c-1 -1 -33 -4 -72 -7 -359 -28 -680 -244 -820 -551 -56
-121 -69 -193 -69 -356 1 -135 3 -151 31 -231 31 -87 96 -198 149 -254 112
-117 277 -198 449 -221 96 -13 628 -12 661 1 28 11 33 21 57 106 14 52 29 108
31 124 3 17 10 46 16 65 16 55 13 98 -8 109 -11 6 -144 10 -323 10 -167 0
-317 3 -334 6 -52 10 -131 51 -173 90 -149 134 -127 399 45 553 56 51 165 105
241 121 32 7 187 11 395 11 313 0 344 2 365 18 19 15 31 50 63 181 21 90 39
171 39 180 -1 46 3 46 -380 46 -199 0 -362 0 -363 -1z"/>
<path d="M3673 3360 c-13 -11 -25 -32 -28 -45 -3 -14 -8 -37 -12 -52 -3 -16
-7 -32 -8 -38 -4 -16 -35 -168 -39 -192 -7 -35 23 -59 91 -72 35 -6 110 -32
168 -57 136 -58 158 -53 168 41 6 58 28 135 39 135 5 0 8 6 8 14 0 23 84 103
136 129 133 67 278 44 382 -61 65 -64 99 -139 101 -218 1 -29 6 -34 59 -54 57
-23 90 -45 81 -55 -3 -3 -41 -7 -84 -10 -53 -4 -85 -11 -97 -22 -25 -22 -37
-72 -30 -124 12 -93 11 -94 -35 -97 -36 -3 -49 -10 -91 -57 -67 -73 -84 -76
-156 -24 -33 24 -75 48 -94 54 -89 31 -177 -39 -262 -209 -77 -156 -89 -147
197 -146 258 1 360 13 488 56 296 99 471 335 464 623 -6 235 -125 388 -364
468 l-80 27 -490 3 c-486 4 -490 4 -512 -17z"/>
<path d="M3375 2192 c-40 -16 -45 -27 -90 -210 -28 -117 -32 -147 -22 -163 11
-18 25 -19 223 -19 237 0 243 2 263 78 80 303 81 321 18 323 -216 6 -363 2
-392 -9z"/>
</g>
</svg>
