<svg class="icon" xmlns="http://www.w3.org/2000/svg" viewBox="0 0 140 33">
  <path d="M91.2 11.1h1.25a.71.71 0 0 1 .36.61c0 .35-.36.56-1 .56a5.49 5.49 0 0 1-.7 0zm.12-2.21h1a.42.42 0 0 1 .48.47.84.84 0 0 1-.4.65h-1.14zm2.7 3a1.43 1.43 0 0 0-.86-1.38A1.57 1.57 0 0 0 94 9.19a1.3 1.3 0 0 0-1.46-1.38h-2.38l-.29 5.4a12.47 12.47 0 0 0 1.82.16c1.4 0 2.31-.49 2.31-1.49zM96.1 8.84h.5c.71 0 1 .25 1 .78s-.48.86-1.06.86a3.91 3.91 0 0 1-.51 0zm-.1 2.64a5.14 5.14 0 0 0 .59 0h.15l.79 1.8 1.4-.06-1-2.06a1.77 1.77 0 0 0 .91-1.54c.07-1.26-.74-1.86-2.09-1.86h-1.81l-.29 5.49h1.22zM101 7.8h-1.22l-.28 5.49h1.22L101 7.8zM102.8 13.29h1.21l.23-4.4h1.51l.11-1.09h-4.29l-.12 1.09h1.57l-.22 4.4zM107.59 7.8h-1.22l-.29 5.49h1.23l.28-5.49zM110.08 12.27a5.47 5.47 0 0 1-1.64-.27l-.26 1.08a5 5 0 0 0 1.69.29c1.41 0 2.13-.58 2.18-1.66.1-1.79-2.53-1.67-2.58-2.23a.62.62 0 0 1 .69-.67 5.62 5.62 0 0 1 1.62.28l.27-1.09a5 5 0 0 0-1.69-.28c-1.39 0-2.11.57-2.17 1.64-.09 1.79 2.55 1.66 2.59 2.22a.62.62 0 0 1-.7.68M113.97 11.1h1.95l-.11 2.19h1.21l.29-5.49h-1.21l-.12 2.21h-1.95l.11-2.21h-1.22l-.28 5.49h1.22l.11-2.19zM90.83 18.14h1.96l-.12 2.19h1.21l.29-5.49h-1.21l-.12 2.2h-1.95l.12-2.2h-1.23l-.28 5.49h1.22l.11-2.19zM98.52 17.58c-.07 1.29-.58 1.73-1.36 1.73s-1.25-.44-1.18-1.73.57-1.73 1.36-1.73 1.24.44 1.18 1.73m-3.82 0c-.11 2.1.92 2.82 2.4 2.82s2.58-.72 2.69-2.82-.92-2.82-2.39-2.82-2.59.71-2.7 2.82M102.19 17.52a2.67 2.67 0 0 1-.51-.05l.08-1.6h.5c.71 0 1 .26 1 .79s-.49.86-1.07.86zm1.36.72a1.79 1.79 0 0 0 .91-1.55c.07-1.26-.74-1.85-2.09-1.85h-1.77l-.29 5.49h1.22l.1-1.82a3.57 3.57 0 0 0 .59 0h.16l.77 1.81 1.41-.07zM107.06 19.31a5.8 5.8 0 0 1-1.64-.27l-.27 1.07a5.1 5.1 0 0 0 1.7.29c1.41 0 2.13-.57 2.18-1.65.09-1.8-2.54-1.68-2.58-2.24 0-.35.2-.66.69-.66a5.61 5.61 0 0 1 1.62.27L109 15a5 5 0 0 0-1.69-.28c-1.4 0-2.11.57-2.17 1.64-.09 1.79 2.55 1.67 2.59 2.23a.63.63 0 0 1-.7.68M109.61 20.33h3.57l.12-1.1h-2.41l.06-1.09h1.89l.13-1.1H111l.06-1.11h2.35l.12-1.09h-3.63l-.29 5.49zM116.88 16.66c0 .62-.48.86-1 .86a2.7 2.7 0 0 1-.52-.05l.09-1.6h.49c.66 0 .97.26.94.79zm-2.65-1.82l-.29 5.49h1.22l.1-1.82a3.73 3.73 0 0 0 .59 0h.15l.78 1.81 1.4-.07-1-2.05a1.82 1.82 0 0 0 .92-1.55c.06-1.26-.75-1.85-2.09-1.85zM121.12 15.87l.54 2.32h-1.32zM120 19.28h1.87l.25 1h1.25L122 14.81l-1.68.06-1.92 5.46h1.26zM126 20.4a5.62 5.62 0 0 0 1.54-.22l-.15-1.07a4.52 4.52 0 0 1-1.25.2c-.81 0-1.31-.41-1.24-1.73s.61-1.73 1.43-1.73a4.05 4.05 0 0 1 1.22.21l.25-1.06a5.82 5.82 0 0 0-1.52-.22c-1.41 0-2.57.73-2.68 2.82s1 2.82 2.38 2.82M129.72 14.84h-1.22l-.29 5.49h1.22l.29-5.49zM131.67 16.93l1.89 3.43 1.13-.07.29-5.45h-1.18l-.18 3.39-1.89-3.42-1.14.06-.28 5.46h1.19l.17-3.4zM137.9 20.4a5.64 5.64 0 0 0 1.88-.34l.15-2.81h-2.05l-.13 1.09h.9l-.05.9a2.49 2.49 0 0 1-.59.07c-.86 0-1.33-.45-1.26-1.73s.65-1.73 1.51-1.73a4.34 4.34 0 0 1 1.28.21l.26-1.06a6 6 0 0 0-1.57-.22c-1.44 0-2.64.73-2.75 2.82s.94 2.82 2.42 2.82M91.41 22.25l1 3.26h-2.34zm-1.49 3.63h2.61l.47 1.48h.44l-1.72-5.5h-.53l-2.28 5.47h.42zM96 27.44c1.14 0 2-.47 2-1.69l.21-3.88h-.41l-.2 3.88c0 .94-.73 1.31-1.64 1.31s-1.54-.37-1.49-1.31l.2-3.88h-.4l-.21 3.88c-.06 1.22.74 1.69 1.89 1.69M98.87 22.25h1.9l-.27 5.11h.41l.27-5.11h1.87l.05-.38h-4.18l-.05.38zM107.12 24.47h-3.13l.14-2.6h-.41l-.29 5.49h.41l.13-2.52h3.13l-.13 2.52h.4l.29-5.49h-.41l-.13 2.6zM110.85 27.06c-1.19 0-2-.65-1.9-2.44s1-2.45 2.15-2.45 2 .64 1.9 2.45-1 2.44-2.15 2.44m.27-5.26c-1.43 0-2.46.74-2.57 2.82s.85 2.82 2.28 2.82 2.47-.75 2.58-2.82-.85-2.82-2.29-2.82M115.65 24.83c-.3 0-.67 0-.88-.07l.13-2.51h.88c1.09 0 1.7.34 1.65 1.23s-.79 1.35-1.78 1.35m2.19-1.34c.06-1.15-.71-1.62-2-1.62h-1.32l-.28 5.49h.4l.12-2.22c.26 0 .57.06.89.06a3.49 3.49 0 0 0 .65-.05l1.24 2.23h.47L116.69 25a1.66 1.66 0 0 0 1.15-1.54M118.89 27.36h.41l.29-5.48h-.41l-.29 5.48zM120.19 22.25h1.9l-.27 5.11h.41l.27-5.11h1.87l.05-.38h-4.18l-.05.38zM126.59 24.6l-1.55-2.74-.47.03 1.79 3.1-.12 2.37h.41l.12-2.37 2.12-3.1-.48-.03-1.82 2.74zM42 19.55h5.09a2.4 2.4 0 0 1 1.25 2.17c-.09 1.23-1.34 2-3.52 2a27.32 27.32 0 0 1-3.1-.2zm.55-7.9h4a1.51 1.51 0 0 1 1.69 1.67 3.06 3.06 0 0 1-1.47 2.32h-4.51zm10.1 10.68c.14-2-.78-3.71-3-4.93a5.82 5.82 0 0 0 3-4.69c.18-2.68-1.61-4.94-5.12-4.94h-9.07l-1.35 19.28a52.31 52.31 0 0 0 7.11.59c4.99 0 8.16-1.74 8.41-5.31zM58.01 19.55h6.97l-.55 7.81h3.96l.45-1.22 1.29-18.36H65.8l-.55 7.86h-6.97l.55-7.86h-4.35l-1.37 19.58h4.35l.55-7.81z" fill="#ffffff"/>
  <path d="M78.38 11.46l1.79 8.28h-4.72zm-10 15.9h4.49l1.32-3.74h6.71l.8 3.74h4.49L81.59 7.8h-6l-6.75 18.34-.08 1.22z" fill="#ffffff"/>
  <path fill="#ffffff" d="M68.76 27.36l.08-1.22-.45 1.22h.37zM24.64 4.75h.07l8.12 14.33-2.25-.56-1 2.3-1.14-1.25 1.07-2.29-4.34-5.87 1.77-.41-3.57-4.4zM6 28.86a.52.52 0 0 0 .11.1l10.05-11.61 1.19-6.25h.32l-.07 4.15 1.4.84 5.12 2.74 2.46 3 1.35 1.67h4.35c.19-.38.37-.77.53-1.16v-.09l.29-.76a18 18 0 0 0 .63-2.29L23.27.1l-.16-.1-1.06 3.21H5.79c-.21.18-.41.37-.6.56l10.32 1.52H3.81l-.38.48 7.15 1.05-.67.18H2.6c-.14.22-.27.45-.4.68l3.07.45L1.52 9a15.89 15.89 0 0 0-1 2.89l12.89-3.65L.07 16.36v.2A16.92 16.92 0 0 0 6 28.86z"/>
  <path fill="#ffffff" d="M14.59 21.91l-1.17 1.68h12.73l-1.14-1.68H14.59zM24.33 26.51h1.4l-3.4 5.62a17.37 17.37 0 0 0 2.9-1.25l.8-.47A17.63 17.63 0 0 0 29 28.12l.46-.47a17.16 17.16 0 0 0 1.81-2.27H12.16l-1.59 2.27-.33.47-1.61 2.29-.15.23.42.24a17.08 17.08 0 0 0 4.62 1.71l3.68-6.08h1.39l-3.81 6.3a17 17 0 0 0 2.27.15 16.76 16.76 0 0 0 3.57-.38z"/>
</svg>
