<svg class="icon" xmlns="http://www.w3.org/2000/svg" viewBox="0 0 21.34 21.34">
  <path d="M1 14.51a.58.58 0 0 0-.16.32L0 20.72a.52.52 0 0 0 .15.46.56.56 0 0 0 .46.16l5.9-.85a.49.49 0 0 0 .31-.16L17.65 9.52a.55.55 0 1 0-.78-.78L6.19 19.42l-5 .72.71-5L12.58 4.49a.55.55 0 0 0 0-.78.54.54 0 0 0-.78 0z"/>
  <path d="M14.35 6.16L5.1 15.41a.59.59 0 0 0 .83.83L15.18 7a.59.59 0 0 0-.83-.83"/>
  <path d="M20 5.56l-1.2 1.22-4.25-4.26 1.21-1.22a1 1 0 0 1 1.43.07L20 4.14a1 1 0 0 1 0 1.42m-5-5L13.42 2.1a.52.52 0 0 0 0 .74l5 5a.5.5 0 0 0 .73 0l1.57-1.57a2 2 0 0 0-.14-2.89L17.89.67A2.07 2.07 0 0 0 15 .53"/>
</svg>
