<svg class="icon" xmlns="http://www.w3.org/2000/svg" viewBox="0 0 27 27">
  <path d="M25.56 14.71a.76.76 0 0 1-.14.43.27.27 0 0 1-.19.11h-.29v-3.51h.29a.27.27 0 0 1 .19.11.76.76 0 0 1 .14.43zm-2.06 2.15a.51.51 0 0 1-.55.45h-.48V9.68H23a.51.51 0 0 1 .55.44zM21 19.33a.43.43 0 0 1-.13.3.59.59 0 0 1-.76 0 .41.41 0 0 1-.14-.3V7.65a.42.42 0 0 1 .14-.3.56.56 0 0 1 .38-.14.57.57 0 0 1 .38.14.45.45 0 0 1 .13.3zM8.45 14h10.1v-1H8.45zM7 19.33a.41.41 0 0 1-.14.3.58.58 0 0 1-.76 0 .43.43 0 0 1-.13-.3V7.65a.45.45 0 0 1 .13-.3.57.57 0 0 1 .38-.14.56.56 0 0 1 .38.14.42.42 0 0 1 .14.3zm-2.48-2H4a.54.54 0 0 1-.35-.13.3.3 0 0 1-.15-.2v-7a.3.3 0 0 1 .11-.23.54.54 0 0 1 .39-.09h.57zm-2.46-2.08h-.28a.26.26 0 0 1-.2-.12.71.71 0 0 1-.14-.43v-2.41a.77.77 0 0 1 .14-.44.27.27 0 0 1 .2-.11h.28zm24.47-4.32a1.71 1.71 0 0 0-1.3-.63h-.29v-.18a1.94 1.94 0 0 0-2-1.88h-.48v-.59a1.91 1.91 0 0 0-.59-1.35 2.05 2.05 0 0 0-2.74 0 1.87 1.87 0 0 0-.59 1.35v3.89H8.45V7.65a1.87 1.87 0 0 0-.59-1.35 2.05 2.05 0 0 0-2.74 0 1.91 1.91 0 0 0-.59 1.35v.59H4a2 2 0 0 0-1.32.5A1.77 1.77 0 0 0 2.06 10v.26h-.28a1.68 1.68 0 0 0-1.3.63 2.11 2.11 0 0 0-.48 1.4v2.41a2.11 2.11 0 0 0 .48 1.36 1.68 1.68 0 0 0 1.3.63h.28V17a1.77 1.77 0 0 0 .58 1.3 2 2 0 0 0 1.32.5h.57v.58a1.87 1.87 0 0 0 .59 1.35 2 2 0 0 0 2.74 0 1.83 1.83 0 0 0 .59-1.35v-3.93h10.1v3.88a1.83 1.83 0 0 0 .59 1.35 2 2 0 0 0 2.74 0 1.87 1.87 0 0 0 .59-1.35v-.58H23a2 2 0 0 0 2-1.89v-.17h.29a1.71 1.71 0 0 0 1.3-.63 2.15 2.15 0 0 0 .41-1.35v-2.43a2.11 2.11 0 0 0-.47-1.35z"/>
</svg>
