<svg class="icon" xmlns="http://www.w3.org/2000/svg" viewBox="0 0 33 33">
  <path d="M31.46 15.81l-2.74 1.39-4.12-8.73 2.75-1.39zm1.48 0l-4.71-9.94a.65.65 0 0 0-.87-.3l-3.91 2a.69.69 0 0 0-.3.9L27.62 18l-1.39 1.31a17.58 17.58 0 0 1-4.28 3l-7.49 3.79a.53.53 0 0 1-.46 0 .65.65 0 0 1-.36-.33.64.64 0 0 1 0-.47.62.62 0 0 1 .32-.37l4.18-2.13a.69.69 0 0 0 .31-.9.64.64 0 0 0-.86-.31l-4.1 2.08-2.06 1a.56.56 0 0 1-.47 0 .58.58 0 0 1-.35-.32.64.64 0 0 1 .28-.84l6-3.06a.69.69 0 0 0 .31-.9.65.65 0 0 0-.87-.31l-4.49 2.36-2.3 1.16a.59.59 0 0 1-.81-.29.58.58 0 0 1 0-.48.65.65 0 0 1 .3-.37l.75-.37 5.38-2.74a.68.68 0 0 0 .3-.9.65.65 0 0 0-.87-.31L9.18 20a.55.55 0 0 1-.47 0 .63.63 0 0 1-.35-.33.66.66 0 0 1 0-.48.65.65 0 0 1 .31-.36l2.87-1.46a.69.69 0 0 0 .3-.9.64.64 0 0 0-.86-.31l-2.9 1.51a2 2 0 0 0-1 1.14 2 2 0 0 0 .08 1.52 1.94 1.94 0 0 0 .55.69 2 2 0 0 0-.17 2 1.91 1.91 0 0 0 1.65 1.11 2 2 0 0 0 .19.87 1.9 1.9 0 0 0 1.72 1.11 1.77 1.77 0 0 0 .84-.21l.34-.17a1.87 1.87 0 0 0 .18.61 1.94 1.94 0 0 0 1.1 1 2 2 0 0 0 .62.11 1.89 1.89 0 0 0 .84-.2l7.5-3.81a19.38 19.38 0 0 0 4.58-3.25l1.68-1.6 3.83-1.94a.7.7 0 0 0 .33-.85z"/>
  <path d="M7.67 8l-3.14 9-3-1 3.14-9zm1.44.51a3.51 3.51 0 0 0 2.66-.15l.42-.2a2.16 2.16 0 0 1 1.6-.1l7.79 2.64a1.41 1.41 0 0 1-.51.81 1.74 1.74 0 0 1-1.43 0l-3.5-1.17a.72.72 0 0 0-.54.05.7.7 0 0 0-.33.4 4.58 4.58 0 0 1-2 2.58 4.41 4.41 0 0 1-3.55 0 .72.72 0 0 0-.52 0 .67.67 0 0 0-.34.38.66.66 0 0 0 .42.84 7.38 7.38 0 0 0 2.32.41 4.86 4.86 0 0 0 2.31-.55 5.67 5.67 0 0 0 2.42-2.74l2.87 1a2.88 2.88 0 0 0 2.64-.16A2.91 2.91 0 0 0 23 10.3a.68.68 0 0 0-.45-.65l-8.33-2.83a3.53 3.53 0 0 0-2.63.18l-.42.19a2.07 2.07 0 0 1-1.62.09L8.86 7h-.11L4.47 5.53a.72.72 0 0 0-.52 0 .63.63 0 0 0-.33.37L0 16.18a.65.65 0 0 0 0 .51.62.62 0 0 0 .45.31l4.26 1.44a.62.62 0 0 0 .23 0 .6.6 0 0 0 .3-.07.68.68 0 0 0 .34-.37l3.35-9.6z"/>
</svg>
