<svg class="icon" xmlns="http://www.w3.org/2000/svg" viewBox="0 0 21 21"><title>nav-invoice</title><path d="M18.43,5.52a13,13,0,0,1-4.43.7,13,13,0,0,1-4.43-.7C8.44,5.09,7.78,4.54,7.78,4s.66-1.1,1.79-1.53A13,13,0,0,1,14,1.77a13,13,0,0,1,4.43.7c1.13.43,1.79,1,1.79,1.53s-.66,1.09-1.79,1.52m.42-3.7A13.59,13.59,0,0,0,14,1a13.59,13.59,0,0,0-4.85.82C7.37,2.53,7,3.39,7,4V6.61A.39.39,0,0,0,7.39,7a.38.38,0,0,0,.39-.38V5.45l.42.25A11.81,11.81,0,0,0,14,7,11.81,11.81,0,0,0,19.8,5.7l.42-.25V6.61c0,.47-.49.95-1.38,1.35a11.53,11.53,0,0,1-3.55.82.39.39,0,0,0-.27.13.38.38,0,0,0-.09.29.39.39,0,0,0,.39.35h0A10.35,10.35,0,0,0,19.8,8.29L20.22,8V9.22c0,.8-1.5,1.63-3.65,2a.42.42,0,0,0-.25.16.39.39,0,0,0,.32.61h.07a8.58,8.58,0,0,0,3.09-1.06l.42-.26v1.17c0,.8-1.5,1.63-3.65,2a.39.39,0,0,0-.31.45.38.38,0,0,0,.38.32h.07a8.58,8.58,0,0,0,3.09-1.06l.42-.26v1.16c0,.81-1.5,1.64-3.65,2a.42.42,0,0,0-.25.16.38.38,0,0,0-.06.29.39.39,0,0,0,.38.32h.07a8.58,8.58,0,0,0,3.09-1.06l.42-.26V17c0,.47-.49.95-1.38,1.36a11.53,11.53,0,0,1-3.55.82.35.35,0,0,0-.27.13.37.37,0,0,0-.09.28.4.4,0,0,0,.39.36h0a11.49,11.49,0,0,0,3.94-1c.78-.37,1.7-1,1.7-2V4c0-.61-.37-1.47-2.15-2.18"/><path d="M11.43,13.44A13.22,13.22,0,0,1,7,14.12a13.22,13.22,0,0,1-4.43-.68c-1.13-.42-1.79-1-1.79-1.5s.66-1.08,1.79-1.5A13.22,13.22,0,0,1,7,9.76a13.22,13.22,0,0,1,4.43.68c1.13.42,1.79,1,1.79,1.5S12.56,13,11.43,13.44Zm1.79,1.06c0,.53-.66,1.08-1.79,1.5A13.22,13.22,0,0,1,7,16.68,13.22,13.22,0,0,1,2.57,16C1.44,15.58.78,15,.78,14.5V13.36l.42.25A12,12,0,0,0,7,14.88a12,12,0,0,0,5.8-1.27l.42-.25Zm0,2.56c0,.53-.66,1.08-1.79,1.5A13.22,13.22,0,0,1,7,19.24a13.22,13.22,0,0,1-4.43-.68c-1.13-.42-1.79-1-1.79-1.5V15.92l.42.25A12,12,0,0,0,7,17.44a12,12,0,0,0,5.8-1.27l.42-.25ZM11.85,9.8A13.83,13.83,0,0,0,7,9a13.83,13.83,0,0,0-4.85.8C1.17,10.19,0,10.87,0,11.94v5.12c0,.59.37,1.44,2.15,2.14A13.83,13.83,0,0,0,7,20a13.83,13.83,0,0,0,4.85-.8c1-.39,2.15-1.07,2.15-2.14V11.94C14,11.35,13.63,10.5,11.85,9.8Z"/></svg>
