<svg class="icon" xmlns="http://www.w3.org/2000/svg" viewBox="0 0 20.31 20.31">
  <path d="M5.7 7.75h.07c.2.12.35.21.41.41.22.76 1.71 3.61 3.73 3.61S13.43 9 13.65 8.21c0-.19.2-.29.41-.41h.07c.54-1 .45-1.42.39-1.57a.4.4 0 0 0-.26-.23.47.47 0 0 1-.35-.46 7.91 7.91 0 0 0-.22-2.17A3.67 3.67 0 0 0 9.91.88a3.72 3.72 0 0 0-3.78 2.45 7.93 7.93 0 0 0-.22 2.17.44.44 0 0 1-.36.5.41.41 0 0 0-.25.22c-.06.15-.15.59.4 1.57m4.21 4.91c-2.43 0-4.13-2.92-4.54-4.11l-.07-.05a.78.78 0 0 1-.3-.28 2.77 2.77 0 0 1-.49-2.46A1.23 1.23 0 0 1 5 5.24a8.83 8.83 0 0 1 .28-2.14A4.59 4.59 0 0 1 9.91 0a4.61 4.61 0 0 1 4.64 3.1 8.73 8.73 0 0 1 .25 2.14 1.24 1.24 0 0 1 .52.56 2.8 2.8 0 0 1-.46 2.46.81.81 0 0 1-.34.28l-.07.05c-.4 1.19-2.11 4.11-4.54 4.11"/>
  <path d="M13.1 12.84a.41.41 0 0 1-.21-.05 2.63 2.63 0 0 1-1.2-1 .43.43 0 0 1 .19-.59.44.44 0 0 1 .59.18 2.08 2.08 0 0 0 .83.63.44.44 0 0 1 .19.59.43.43 0 0 1-.39.24M10.14 20.31a61.66 61.66 0 0 1-9.78-.85A.43.43 0 0 1 0 19a6.43 6.43 0 0 1 5-6.4 6.5 6.5 0 0 0 2.43-1.32.44.44 0 0 1 .63 0 .43.43 0 0 1 0 .62 7.3 7.3 0 0 1-2.79 1.54c-2 .63-4 1.74-4.35 5.22a59.73 59.73 0 0 0 10.41.76.42.42 0 0 1 .45.42.44.44 0 0 1-.43.46h-1.2M14 14.57v4.85h5.3v-4.85zm5.3 5.73H14a.88.88 0 0 1-.88-.88v-4.85a.88.88 0 0 1 .88-.89h5.3a.88.88 0 0 1 .88.89v4.85a.88.88 0 0 1-.88.88z"/>
  <path d="M19.28 16.77H14a.44.44 0 1 1 0-.88h5.3a.44.44 0 0 1 0 .88M15.31 15.45a.45.45 0 0 1-.45-.44v-1.77a.45.45 0 0 1 .89 0V15a.44.44 0 0 1-.44.44M18 15.45a.44.44 0 0 1-.44-.44v-1.77a.45.45 0 0 1 .89 0V15a.45.45 0 0 1-.45.44"/>
</svg>
