<svg class="icon" xmlns="http://www.w3.org/2000/svg" viewBox="0 0 18 18">
  <path d="M1.18.78a.4.4 0 0 0-.39.39v15.66a.4.4 0 0 0 .39.39h12.64a.4.4 0 0 0 .39-.39V5.25L9.7.78zM13.82 18H1.18A1.18 1.18 0 0 1 0 16.83V1.17A1.18 1.18 0 0 1 1.18 0h8.69a.43.43 0 0 1 .28.11l4.73 4.7a.36.36 0 0 1 .12.28v11.74A1.18 1.18 0 0 1 13.82 18z"/>
  <path d="M14 6H9.38A.4.4 0 0 1 9 5.58V1h.77v4.17H14zM6.64 7H2.36C2.16 7 2 6.78 2 6.5s.16-.5.36-.5h4.28c.2 0 .36.22.36.5s-.16.5-.36.5M11.62 9H2.38C2.17 9 2 8.78 2 8.5s.17-.5.38-.5h9.24c.21 0 .38.22.38.5s-.17.5-.38.5M11.62 11H2.38c-.21 0-.38-.22-.38-.5s.17-.5.38-.5h9.24c.21 0 .38.22.38.5s-.17.5-.38.5M11.62 14H2.38c-.21 0-.38-.22-.38-.5s.17-.5.38-.5h9.24c.21 0 .38.22.38.5s-.17.5-.38.5"/>
</svg>
