<svg class="icon" xmlns="http://www.w3.org/2000/svg" viewBox="0 0 22.97 22.97">
  <path d="M2 7.2l9.51 3.61L21 7.2l-9.52-3.6zm9.51 4.67a.43.43 0 0 1-.19 0L.33 7.68A.52.52 0 0 1 0 7.2a.5.5 0 0 1 .33-.47l11-4.16a.62.62 0 0 1 .38 0l11 4.16a.51.51 0 0 1 .29.47.53.53 0 0 1-.34.48l-11 4.15a.41.41 0 0 1-.19 0z"/>
  <path d="M11.48 16.34h-.19l-11-4.16a.5.5 0 0 1-.29-.5.52.52 0 0 1 .33-.48l5.48-2.08a.53.53 0 0 1 .68.29.52.52 0 0 1-.3.67L2 11.68l9.51 3.6 9.49-3.6-4.22-1.6a.51.51 0 0 1-.3-.67.52.52 0 0 1 .67-.29l5.48 2.08a.53.53 0 0 1 .34.48.51.51 0 0 1-.34.47l-11 4.16a.58.58 0 0 1-.19 0"/>
  <path d="M11.48 20.43h-.19l-11-4.16a.5.5 0 0 1-.29-.5.52.52 0 0 1 .33-.48l5.22-2a.54.54 0 0 1 .68.29.51.51 0 0 1-.3.66L2 15.77l9.51 3.6 9.49-3.6-4-1.51a.5.5 0 0 1-.3-.66.52.52 0 0 1 .67-.29l5.22 2a.53.53 0 0 1 .34.48.51.51 0 0 1-.34.47l-11 4.16a.58.58 0 0 1-.19 0"/>
</svg>
