<svg class="icon" xmlns="http://www.w3.org/2000/svg" viewBox="0 0 22.51 22.51">
  <path d="M18.14 20.66a2.43 2.43 0 0 1-1.89.79H16a10.39 10.39 0 0 1-3.77-1.13 21.43 21.43 0 0 1-7.09-5.56A19.73 19.73 0 0 1 1.7 9a6.94 6.94 0 0 1-.54-3 2.36 2.36 0 0 1 .69-1.5l1.64-1.66a1.18 1.18 0 0 1 .8-.37 1.16 1.16 0 0 1 .79.37c.28.26.55.53.86.85.08.08.15.16.23.23l.23.24 1.3 1.3a1 1 0 0 1 0 1.65l-.14.14-.27.27c-.43.44-.8.8-1.2 1.16a.84.84 0 0 0-.21 1 10.46 10.46 0 0 0 1.5 2.52 17.25 17.25 0 0 0 4.21 3.83c.19.12.39.22.58.32a4.12 4.12 0 0 1 .47.25h.06a.88.88 0 0 0 1.06-.19l1.63-1.64a1.2 1.2 0 0 1 .81-.39 1.11 1.11 0 0 1 .77.38l2.64 2.65a1 1 0 0 1 .29 1.27l-.29.39c-.15.17-.3.32-.47.48l-.11.1a11.84 11.84 0 0 0-.89 1.01zm-.38-6.56a2.13 2.13 0 0 0-1.53-.71 2.22 2.22 0 0 0-1.55.7l-1.57 1.57h-.08l-.24-.12-.12-.06c-.17-.09-.34-.17-.48-.26a16.41 16.41 0 0 1-4-3.61A9.54 9.54 0 0 1 6.91 9.5v-.08l.06-.06c.35-.32.68-.65 1-1l.1-.1.2-.2.2-.2a2.21 2.21 0 0 0 .69-1.56 2.23 2.23 0 0 0-.71-1.57l-1.31-1.3L6.69 3c-.27-.28-.57-.59-.89-.88a2.14 2.14 0 0 0-1.52-.67 2.22 2.22 0 0 0-1.54.67L1.11 3.74a3.35 3.35 0 0 0-1 2.14 8.4 8.4 0 0 0 .6 3.5 20.51 20.51 0 0 0 3.64 6.06 22.33 22.33 0 0 0 7.44 5.83A10.84 10.84 0 0 0 16 22.5h.29a3.44 3.44 0 0 0 2.65-1.14 9.82 9.82 0 0 1 .78-.81l.07-.06.61-.61a2.29 2.29 0 0 0 .69-1.57 2.18 2.18 0 0 0-.7-1.56zM12.36 5v-.12V5a6.15 6.15 0 0 1 3.36 1.74 6.25 6.25 0 0 1 1.74 3.36.52.52 0 0 0 .52.44h.09a.52.52 0 0 0 .43-.61 7.31 7.31 0 0 0-6-6h-.09a.53.53 0 0 0-.52.43.57.57 0 0 0 .09.4.51.51 0 0 0 .34.21M22.41 9.89h-.11.11A12.11 12.11 0 0 0 12.54 0a.49.49 0 0 0-.39.09.53.53 0 0 0-.22.34.53.53 0 0 0 .44.6 11.07 11.07 0 0 1 9 9 .52.52 0 0 0 .52.43H22a.48.48 0 0 0 .33-.2.47.47 0 0 0 .09-.39"/>
</svg>
