<svg class="icon" xmlns="http://www.w3.org/2000/svg" viewBox="0 0 29 29">
  <path d="M22.8 12.19v.77l-1.42 10.9a.18.18 0 0 1-.18.16H9.22a.18.18 0 0 1-.22-.16L7.74 13.72v-.05a1.18 1.18 0 0 0-.13-.33l-.17-.25-.1-.09a7.1 7.1 0 0 1-2-3.59.51.51 0 0 0-.46-.41h-.12a.52.52 0 0 0-.41.21 3.55 3.55 0 0 1-2 .92.51.51 0 0 0-.41.31c-.09.19-.24.44-.43.49h-.1a.74.74 0 0 1-.29-.08c-.34-.66.51-1.94 1-2.47A.69.69 0 0 0 2.25 8a5.49 5.49 0 0 1 .45-1.5.69.69 0 0 0 .07-.15A.67.67 0 0 0 3 6.3a.46.46 0 0 0 .21-.18.53.53 0 0 0 .33.12.35.35 0 0 0 .14 0 2.45 2.45 0 0 1 .62-.08 6.26 6.26 0 0 1 3.27 1.35A15 15 0 0 1 9.37 9 6.81 6.81 0 0 0 14 11a4.78 4.78 0 0 0 1.64-.27 9.26 9.26 0 0 1 3.25-.73 5.69 5.69 0 0 1 1.91.33 15.1 15.1 0 0 0 1.58.44h.11a.65.65 0 0 0 .2 0 1.35 1.35 0 0 1 .52-.11c1.43 0 3.15 2.26 4.38 4.53a2.73 2.73 0 0 1-1.07-.49l-.16-.1A5.27 5.27 0 0 1 24 11.89a.48.48 0 0 0-.13-.23.69.69 0 0 0-.49-.23.59.59 0 0 0-.26.07.7.7 0 0 0-.34.67zm6.2 3.4c-.28-.62-2.86-6-5.76-6a2.28 2.28 0 0 0-.73.12c-.28-.07-.92-.23-1.31-.37A6.49 6.49 0 0 0 18.89 9a10.44 10.44 0 0 0-3.57.74 3.75 3.75 0 0 1-1.32.19 5.9 5.9 0 0 1-3.9-1.66c-.34-.35-3.21-3.18-5.85-3.18a3.31 3.31 0 0 0-.55 0l-.81-1a.53.53 0 0 0-.41-.19.41.41 0 0 0-.21 0 .47.47 0 0 0-.27.36h-.16a.54.54 0 0 0-.25.06.52.52 0 0 0-.25.6l.36 1.25a6.38 6.38 0 0 0-.47 1.57c-.43.51-1.86 2.4-.91 3.73a.38.38 0 0 0 .11.11 1.7 1.7 0 0 0 1 .33 1.27 1.27 0 0 0 .34 0 1.61 1.61 0 0 0 1-.82 5.19 5.19 0 0 0 1.74-.65 7.82 7.82 0 0 0 2 3.18.92.92 0 0 1 .22.31L8 24a1.25 1.25 0 0 0 1.23 1.05h11.93A1.23 1.23 0 0 0 22.38 24l1.35-10.46a7.54 7.54 0 0 0 2.07 1.92l.15.1a4 4 0 0 0 2.53.74.51.51 0 0 0 .44-.24.53.53 0 0 0 .08-.47z"/>
</svg>
