<svg class="icon" xmlns="http://www.w3.org/2000/svg" viewBox="0 0 24 24"><path d="M21.5 16.55l-.73-.42a.43.43 0 0 0-.59.16.42.42 0 0 0 .16.58l.73.42a10.8 10.8 0 0 1-3.33 3.33l-.42-.73a.43.43 0 0 0-.75.43l.43.73a10.46 10.46 0 0 1-4.48 1.22v-.84a.43.43 0 0 0-.43-.43h-.14a.43.43 0 0 0-.43.43v.83A11.15 11.15 0 0 1 9.61 22h-.07A10.89 10.89 0 0 1 7 21.07l.42-.73a.43.43 0 0 0-.15-.59.42.42 0 0 0-.59.16l-.42.73A10.8 10.8 0 0 1 3 17.31l.73-.43a.43.43 0 1 0-.43-.74l-.73.42A10.55 10.55 0 0 1 1.3 12h.84a.43.43 0 1 0 0-.85H1.3a10.59 10.59 0 0 1 1.22-4.54l.73.39a.42.42 0 0 0 .58-.16.42.42 0 0 0-.15-.58L3 5.86a10.8 10.8 0 0 1 3.28-3.33l.42.73a.43.43 0 1 0 .74-.42L7 2.1A10.75 10.75 0 0 1 11.5.88v.85a.43.43 0 0 0 .43.43.45.45 0 0 0 .11 0h.05a.43.43 0 0 0 .43-.43V.89a10 10 0 0 1 1.88.26h.08a10.61 10.61 0 0 1 2.52.94l-.43.73a.45.45 0 0 0 .16.59.41.41 0 0 0 .21 0 .43.43 0 0 0 .38-.21l.42-.73a10.8 10.8 0 0 1 3.33 3.33l-.73.42a.43.43 0 0 0-.16.59.45.45 0 0 0 .37.21.43.43 0 0 0 .22-.02l.73-.42a10.63 10.63 0 0 1 1.22 4.55h-.85a.43.43 0 0 0 0 .86h.85a10.59 10.59 0 0 1-1.22 4.55m.55-10.74a11.83 11.83 0 0 0-1.56-2.1l-.6-.6a11.54 11.54 0 0 0-2.07-1.53A11.66 11.66 0 0 0 13.37.08C13 0 12.55 0 12.18 0h-.36c-.6 0-1 .05-1 .05a11 11 0 0 0-1.4.25.15.15 0 0 0-.07 0 11.39 11.39 0 0 0-3.09 1.25A11.66 11.66 0 0 0 2 5.77a11.52 11.52 0 0 0 0 11.57 10.7 10.7 0 0 0 1.53 2.06l.6.61a12.37 12.37 0 0 0 2.06 1.53 11.49 11.49 0 0 0 4.4 1.45c.41.05.83.06 1.19.07h.37c.6 0 1-.05 1-.05a13.24 13.24 0 0 0 1.38-.23h.07a11.39 11.39 0 0 0 3.09-1.22A11.66 11.66 0 0 0 22 17.39a11.54 11.54 0 0 0 0-11.52m-9.18 6.77a.67.67 0 1 1-.94-.93l3.44-2.51zM17 6.94l-5.55 4a1.52 1.52 0 0 0-.62 1.12 1.51 1.51 0 0 0 .44 1.2 1.55 1.55 0 0 0 1.08.44h.12a1.48 1.48 0 0 0 1.11-.63l4-5.54a.44.44 0 0 0 0-.56.43.43 0 0 0-.58-.03z"/></svg>
