<svg class="icon" xmlns="http://www.w3.org/2000/svg" viewBox="0 0 24 26"><defs><mask id="a" x="9.26" y="0" width="14.49" height="25.26" maskUnits="userSpaceOnUse"><path fill="#fff" d="M9.26 0h14.49v25.26H9.26V0z"/></mask></defs><path d="M11.79 14.45a.66.66 0 0 1 .27-.48l3.32-2.41L13 14.89a.69.69 0 0 1-.48.27.66.66 0 0 1-.71-.71m.75 1.55a1.52 1.52 0 0 0 1.1-.62l3.94-5.45a.42.42 0 0 0-.6-.59l-5.46 3.95a1.5 1.5 0 0 0-.54 1.09 1.52 1.52 0 0 0 .44 1.18 1.5 1.5 0 0 0 1.06.44h.11"/><g mask="url(#a)"><path d="M11.79 2.54V1.26h-1.47a.21.21 0 0 1-.21-.21.21.21 0 0 1 .21-.21h3.79a.22.22 0 0 1 .21.21.21.21 0 0 1-.21.21h-1.48v1.28h-.84zM22 3.47l.59.6-.59.6-.6-.6zm0 4.77a12 12 0 0 0-1.5-2l.9-.9.6.6 1.78-1.79L22 2.28l-1.82 1.79.6.6-.91.9a11 11 0 0 0-2-1.5 11.24 11.24 0 0 0-4.33-1.43v-.5h.64a1.06 1.06 0 0 0 0-2.11h-3.86a1.06 1.06 0 0 0-1.06 1.02 1.07 1.07 0 0 0 1.06 1.06H11v.48a10.44 10.44 0 0 0-1.36.23.42.42 0 0 0-.32.5.43.43 0 0 0 .51.32 9.54 9.54 0 0 1 1.17-.2H11.84v.83a.42.42 0 1 0 .84 0v-.89A10.34 10.34 0 0 1 17 4.58l-.41.72a.41.41 0 0 0 .15.57.42.42 0 0 0 .21.06.44.44 0 0 0 .37-.21l.44-.72A10.63 10.63 0 0 1 21 8.27l-.71.42a.42.42 0 0 0-.16.57.42.42 0 0 0 .37.21.41.41 0 0 0 .21-.05l.75-.42a10.54 10.54 0 0 1 1.2 4.47h-.83a.43.43 0 0 0 0 .85h.83a10.58 10.58 0 0 1-1.2 4.47l-.72-.42a.42.42 0 0 0-.58.16.43.43 0 0 0 .16.57l.72.41a10.69 10.69 0 0 1-3.28 3.28l-.41-.72a.42.42 0 0 0-.58-.15.41.41 0 0 0-.15.57l.41.72a10.48 10.48 0 0 1-4.4 1.2v-.83a.42.42 0 1 0-.84 0v.83a10.54 10.54 0 0 1-2-.26.43.43 0 0 0-.51.32.42.42 0 0 0 .32.5 11 11 0 0 0 2.55.29h.08a11.34 11.34 0 0 0 5.57-1.5 11.4 11.4 0 0 0 4.2-4.15 11.34 11.34 0 0 0 0-11.37z"/></g><path d="M8.42 5.89h-2.1a.43.43 0 1 0 0 .85h2.1a.43.43 0 0 0 0-.85M8.42 8.84H4.21a.42.42 0 0 0-.42.42.42.42 0 0 0 .42.42h4.21a.42.42 0 0 0 .42-.42.42.42 0 0 0-.42-.42M8.42 11.79H2.11a.42.42 0 1 0 0 .84h6.31a.42.42 0 0 0 0-.84M8.42 14.74h-8a.42.42 0 0 0 0 .84h8a.42.42 0 0 0 0-.84M8.42 17.68H3a.43.43 0 0 0 0 .85h5.42a.43.43 0 0 0 0-.85M8.42 20.63H5.47a.42.42 0 0 0-.42.42.42.42 0 0 0 .42.42h3a.42.42 0 0 0 .42-.42.42.42 0 0 0-.42-.42"/></svg>
