<svg class="icon" width="87" height="28" xmlns="http://www.w3.org/2000/svg" xmlns:xlink="http://www.w3.org/1999/xlink">
    <defs>
        <path id="a" d="M.144.352H25.94v19.625H.144z"/>
    </defs>
    <g fill="none" fill-rule="evenodd">
        <path d="M65.12 20H58.702s-1.139 0-1.43.959l-1.239 4.083s-.291.958.848.958h6.418s1.138 0 1.428-.958l1.24-4.084S66.258 20 65.12 20" fill="#00304E"/>
        <g transform="translate(61)">
            <mask id="b" fill="#fff">
                <use xlink:href="#a"/>
            </mask>
            <path d="M25.246 5.376a7.422 7.422 0 0 0-2.031-2.68c-.89-.748-1.989-1.326-3.294-1.733C18.616.555 17.11.352 15.403.352H2.47s-1.04 0-1.284 1.088c0 0-.588 2.783-1.03 4.69-.085.568.235.95.77 1.017 1.714.216 2.615.661 2.615.661 1.395.535 1.59.879 2.77 1.14.008.003.017 0 .025 0 .03.003.06.01.09.01a.863.863 0 0 0 .748-.458c.007-.008.013-.015.018-.024a.841.841 0 0 0 .095-.273c.038-.199.031-.395.031-.448-.008-2.703 2.231-5.167 5.185-5.457 3.464-.34 6.239 2.872 6.069 5.631-.007.125.058.241.167.282l1.994.763c.108.04.192.143.198.266.009.174-.109.307-.253.323l-2.465.146c-.097.01-.495.319-.7.78-.537 1.21.184 2.41-.017 2.991-.169.49-1.233-.019-1.632.421-.662.728-1.143 1.288-1.143 1.288-.844 1.03-1.756.159-2.078-.087l-.572-.464c-1.382-1.063-3.528-1.49-5.851 3.823-.002.011-.947 1.516.145 1.516h5.779c1.954 0 3.73-.236 5.33-.704l.457-.137c1.689-.55 3.12-1.314 4.295-2.292a10.252 10.252 0 0 0 2.745-3.527c.646-1.365.97-2.863.97-4.492 0-1.261-.233-2.41-.696-3.449" fill="#00304E" mask="url(#b)"/>
        </g>
        <path d="M44.13 20.8c-.948 0-1.808-.138-2.58-.418a6.01 6.01 0 0 1-2-1.172 5.22 5.22 0 0 1-1.308-1.82c-.311-.712-.467-1.5-.467-2.365 0-1.115.225-2.141.673-3.076A7.852 7.852 0 0 1 40.279 9.5a8.464 8.464 0 0 1 2.71-1.632 9.169 9.169 0 0 1 3.271-.587h10.198s1.062 0 1.334-1.149l1.177-4.983S59.24 0 58.178 0H47.419c-2.392 0-4.648.384-6.765 1.15-2.12.769-3.963 1.843-5.533 3.224a15.363 15.363 0 0 0-3.738 4.96C30.461 11.257 30 13.364 30 15.652c0 1.758.311 3.39.935 4.897a11.526 11.526 0 0 0 2.635 3.913c1.134 1.102 2.504 1.967 4.112 2.595 1.607.628 3.382.942 5.326.942h8.42s1.062 0 1.333-1.15l1.156-4.9s.272-1.15-.79-1.15H44.13zM28.889 0H23.42s-.057.003-.138.015h-5.398s-1.438 0-1.778 1.416l-1.07 4.45s-.342 1.416 1.096 1.416h3.422c.72 0 .527.82.527.82l-.862 3.675-.582 2.483c-1.54 6.565-7.288 6.565-7.288 6.565H2.753s-1.436 0-1.758 1.427l-.964 4.28s-.322 1.428 1.115 1.428h.524c.03.005.055.022.086.025H8.66c.336 0 .656-.017.983-.025h.212l.004-.006c9.507-.327 15.176-4.549 16.982-12.692l3.116-13.66S30.326 0 28.888 0" fill="#FEFEFE"/>
    </g>
</svg>
