<svg class="icon" xmlns="http://www.w3.org/2000/svg" viewBox="0 0 25.87 25.87">
  <path d="M5.42 13.78l-3.5-3.5a.44.44 0 0 0-.62 0L.13 11.46a.44.44 0 0 0-.13.31.48.48 0 0 0 .13.31l2 2-2 2a.44.44 0 0 0 0 .62l1.17 1.2a.43.43 0 0 0 .31.12.43.43 0 0 0 .31-.12l3.5-3.5a.43.43 0 0 0 .12-.31.45.45 0 0 0-.12-.31zM1.61 17l-.53-.53 2-2a.46.46 0 0 0 .13-.31.44.44 0 0 0-.13-.31l-2-2 .56-.56 2.88 2.88z"/>
  <path d="M9.67 20.68H5.28l-1.91-1.91 4.38-4.38a.43.43 0 0 0 0-.61L3.39 9.42l.73-.71h1.15l1.2.11.91.09h1.55a.43.43 0 0 0 .42-.31l.08-.27.22-.42.27-.42.38-.35.36-.14H11l.45.13.36.17.44.45.21.4.11.84a.41.41 0 0 0-.37.22l-.2.3a.39.39 0 0 0-.06.15v.43l-.24.11a.36.36 0 0 0-.14.11l-.3.34h-.07l-.19-.19a.41.41 0 0 0-.38-.08l-.54.14a.46.46 0 0 0-.3.29l-.1.31a.34.34 0 0 0 0 .14v.34l-.32.4a.33.33 0 0 0-.06.1l-.3.65a.17.17 0 0 0 0 .1l-.1.72v.12L9 14v.12l-.05.15a.24.24 0 0 0 0 .08c0 .13-.05.3-.06.33a1.85 1.85 0 0 0 0 .74L9 16.55l.1.72a.27.27 0 0 0 0 .12l.27.6a.42.42 0 0 0 .45.26l.41-.05a.42.42 0 0 0 .3-.18l.2-.28.42-.42.46-.27.38-.16a.45.45 0 0 0 .27-.44l.43-.15.71-.22a.43.43 0 0 0 .31-.4v-.08l.86-.47.73-.13h.09zm8.09-7.29a.44.44 0 0 0-.47-.22l-.69.13a.51.51 0 0 0-.17.07l-.48.34-.89.43-.7.16a.21.21 0 0 0-.11 0l-1 .54-.51.25a.42.42 0 0 0-.23.33h-.06l-.8.29a.52.52 0 0 0-.19.14l-.22.26a.53.53 0 0 0-.08.17l-.45.27-.09.06-.48.49-.05.06v.05L10 17.1l-.09-.68-.21-1.08v-.42l.07-.39.06-.18a.59.59 0 0 0 0-.14V14a.09.09 0 0 0 0-.05v-.31l.04-.64.22-.57.32-.44a.39.39 0 0 0 .09-.26v-.43h.09l.07.05.08.05.29.15a.45.45 0 0 0 .36 0l.29-.12a.48.48 0 0 0 .16-.12l.31-.35.25-.12a.41.41 0 0 0 .11-.07l.16-.15a.48.48 0 0 0 .14-.34v-.39h.48a.44.44 0 0 0 .36-.19.41.41 0 0 0 0-.4L13.6 9a.42.42 0 0 0-.09-.14l-.08-.08-.11-.82a.43.43 0 0 0 0-.14L13 7.28a.44.44 0 0 0-.08-.11l-.55-.55a.36.36 0 0 0-.12-.08l-.45-.22h-.06l-.55-.17h-.63a.58.58 0 0 0-.18 0l-.5.22a.32.32 0 0 0-.12.08l-.48.43-.06.12-.31.49-.27.51v.08H7.45L6.56 8l-1.28-.16H3.94a.42.42 0 0 0-.3.12L2.47 9.11a.4.4 0 0 0-.13.31.47.47 0 0 0 .12.31l4.36 4.35-4.37 4.38a.44.44 0 0 0 0 .62l2.34 2.35a.47.47 0 0 0 .31.12h4.75a.43.43 0 0 0 .31-.12l7.52-7.52a.44.44 0 0 0 .08-.52z"/>
  <path d="M17.05 20.64H13.6l7.4-7.43a.47.47 0 0 0 .12-.31.43.43 0 0 0-.12-.31l-7.4-7.4h3.52l7.69 7.69zm8.69-8.07l-8.13-8.13a.43.43 0 0 0-.31-.12h-4.75a.43.43 0 0 0-.31.74l7.87 7.84-7.87 7.87a.44.44 0 0 0 .31.75h4.68a.44.44 0 0 0 .31-.13l8.2-8.2a.43.43 0 0 0 0-.62z"/>
</svg>
