<svg class="icon" xmlns="http://www.w3.org/2000/svg" viewBox="0 0 24.48 24.48">
  <path d="M7.55 2.24h-6A1.5 1.5 0 0 0 0 3.74v6a1.5 1.5 0 0 0 1.5 1.5h6.05a1.5 1.5 0 0 0 1.5-1.5v-6a1.5 1.5 0 0 0-1.5-1.5zM1 3.74a.52.52 0 0 1 .53-.52h6.02a.52.52 0 0 1 .52.52v6a.52.52 0 0 1-.52.53h-6A.53.53 0 0 1 1 9.79zM12.62 4.81h11.59c.15 0 .27-.22.27-.49s-.12-.49-.27-.49H12.62c-.15 0-.27.22-.27.49s.12.49.27.49zM12.57 7.25h7.71c.13 0 .23-.22.23-.49s-.1-.48-.23-.48h-7.71c-.12 0-.22.22-.22.48s.1.49.22.49zM24.21 8.72H12.62c-.15 0-.27.22-.27.49s.12.49.27.49h11.59c.15 0 .27-.22.27-.49s-.12-.49-.27-.49zM24.21 14.78H12.62c-.15 0-.27.22-.27.49s.12.49.27.49h11.59c.15 0 .27-.22.27-.49s-.12-.49-.27-.49zM12.57 18.2h7.71c.13 0 .23-.22.23-.48s-.1-.49-.23-.49h-7.71c-.12 0-.22.22-.22.49s.1.48.22.48zM24.21 19.67H12.62c-.15 0-.27.22-.27.49s.12.49.27.49h11.59c.15 0 .27-.22.27-.49s-.12-.49-.27-.49z"/>
  <path d="M2 8.84a.52.52 0 0 0 .14.35.48.48 0 0 0 .35.14.48.48 0 0 0 .34-.14l1.69-1.74 1.74 1.74a.48.48 0 0 0 .34.14.5.5 0 0 0 .4-.14.52.52 0 0 0 .14-.35A.48.48 0 0 0 7 8.5L5.21 6.76 7 5a.49.49 0 0 0 0-.69.5.5 0 0 0-.4-.11.48.48 0 0 0-.34.14L4.52 6.08 2.79 4.34a.48.48 0 0 0-.34-.14.48.48 0 0 0-.35.14.52.52 0 0 0-.1.35.48.48 0 0 0 .1.31l1.73 1.76L2.1 8.5a.48.48 0 0 0-.1.34zM7.55 13.19h-6A1.5 1.5 0 0 0 0 14.69v6a1.5 1.5 0 0 0 1.5 1.5h6.05a1.5 1.5 0 0 0 1.5-1.5v-6a1.5 1.5 0 0 0-1.5-1.5zM1 14.69a.52.52 0 0 1 .53-.52h6.02a.52.52 0 0 1 .52.52v6a.52.52 0 0 1-.52.52h-6a.52.52 0 0 1-.55-.47z"/>
  <path d="M3.32 20.16a.48.48 0 0 0 .37.17.49.49 0 0 0 .37-.21L7 15.86a.45.45 0 0 0 .08-.36.47.47 0 0 0-.2-.31.47.47 0 0 0-.28-.09.49.49 0 0 0-.4.21l-2.55 3.74-.84-1a.5.5 0 0 0-.37-.17.47.47 0 0 0-.32.12.48.48 0 0 0-.05.68z"/>
</svg>
