<svg class="icon" xmlns="http://www.w3.org/2000/svg" viewBox="0 0 29 29">
  <path d="M5.91 21.91a2.73 2.73 0 0 1-.22-1.06.38.38 0 0 0 .09.15 1.33 1.33 0 0 1 .13.91m.54 1a3.26 3.26 0 0 1 0 .37 2.69 2.69 0 0 1-.38-1.07.4.4 0 0 0 .16.08c.26.05.27.36.24.61m6.77.5a.37.37 0 0 0 0 .49c.11.11.14.19.13.21s-.14.16-.28.23h-.63a1.78 1.78 0 0 1-.38 0 3.07 3.07 0 0 1 1-.77.36.36 0 0 0 .19-.32v-.74a1 1 0 0 1 0 .95m10.07-12c-.39.21-.3.78.05 2.53a12.25 12.25 0 0 1 .22 1.23c.16 1.85.93 2.42 1.19 2.56 1.3 1.12 1.16 3.5 1.14 3.76a.41.41 0 0 0 0 .12 4.19 4.19 0 0 1 .15 1.37.71.71 0 0 0-.15.87.29.29 0 0 1-.07.22.69.69 0 0 1-.42.16 2.67 2.67 0 0 1-.51.06h-.07a3 3 0 0 1 1-1.19.37.37 0 0 0 .14-.35l-.34-2.15a2.81 2.81 0 0 0-1.71-2.26A12.94 12.94 0 0 1 21.18 17a8.37 8.37 0 0 1-2.9-3.19.36.36 0 0 0-.48-.21.38.38 0 0 0-.21.49 5.93 5.93 0 0 0 .76 1.27c-2.07 1.21-5.65.79-5.69.79-.7-.08-1.14 0-1.36.35a.74.74 0 0 0-.08.7l1.89 5a1.93 1.93 0 0 1-.4-.93.42.42 0 0 0-.13-.21A14.36 14.36 0 0 1 10 17.44c.87-.73 2.2-2.07 2.06-3.33a.38.38 0 0 0-.42-.33.35.35 0 0 0-.25.14.4.4 0 0 0-.08.28c.12 1-1.56 2.53-2.22 3a7.69 7.69 0 0 1-2.3 1.08 2.42 2.42 0 0 0-1.09 2 6.51 6.51 0 0 1 0-.77c-.13-.94.34-1.66 1.44-2.2a1.57 1.57 0 0 0 .93-1.8.37.37 0 0 0-.07-.15 2.28 2.28 0 0 1-.43-1.8.38.38 0 0 0-.14-.38A7.19 7.19 0 0 1 5 9.21a.38.38 0 0 0-.28-.3.39.39 0 0 0-.39.14 3.67 3.67 0 0 1-2.13 1 .37.37 0 0 0-.29.22.94.94 0 0 1-.54.59.77.77 0 0 1-.53-.11C.4 10 1.46 8.49 1.87 8A.35.35 0 0 0 2 7.82a5.34 5.34 0 0 1 .48-1.6.36.36 0 0 0 .03-.22.32.32 0 0 0 .27 0A.37.37 0 0 0 3 5.61l.1.13a.39.39 0 0 0 .4.12c1.2-.35 2.71.41 3.76 1.14a14.68 14.68 0 0 1 2.17 1.73 6.33 6.33 0 0 0 6.21 1.67 7.27 7.27 0 0 1 5.28-.34c.53.19 1.4.39 1.58.44a.55.55 0 0 0 .22 0c.91-.38 2 .16 3.22 1.63A19.34 19.34 0 0 1 28 15.28a3 3 0 0 1-1.44-.56l-.16-.11a5.38 5.38 0 0 1-2.4-2.83.4.4 0 0 0-.09-.17.49.49 0 0 0-.59-.13m-3.9 10.22a.39.39 0 0 0 .2.38h.06a1 1 0 0 1-.3.32.37.37 0 0 0-.12.13.91.91 0 0 1-.23.31c-.12-.31.14-.77.15-.8a.36.36 0 0 0 0-.29c-.19-.69.69-1.4.87-1.53l.66-.58a2.29 2.29 0 0 0 .6-1.64l.81.44a21.38 21.38 0 0 1-2 2.06 1.77 1.77 0 0 0-.75 1.17M29 15.54c-.14-.29-3.27-6.91-6.42-5.8-.26-.06-1-.24-1.38-.39a8 8 0 0 0-5.79.34A5.52 5.52 0 0 1 10 8.19a15.65 15.65 0 0 0-2.29-1.83 5.81 5.81 0 0 0-4.19-1.28L2.65 4a.37.37 0 0 0-.45-.11.38.38 0 0 0-.2.4.39.39 0 0 0-.46-.09.4.4 0 0 0-.19.44L1.73 6a6.59 6.59 0 0 0-.5 1.64c-.37.41-1.85 2.3-.93 3.59l.07.08a1.54 1.54 0 0 0 1.21.26 1.49 1.49 0 0 0 .94-.82A4.79 4.79 0 0 0 4.46 10a7.64 7.64 0 0 0 2.35 3.65 2.88 2.88 0 0 0 .57 2.13.83.83 0 0 1-.56.86A2.79 2.79 0 0 0 5 19.53a5.55 5.55 0 0 0 .33 2.81c.09.56.38 1.78 1.21 1.82a.44.44 0 0 0 .3 0c.32-.14.38-.55.38-1.14a1.25 1.25 0 0 0-.51-1.29 1.74 1.74 0 0 0-.26-1.11A1.9 1.9 0 0 1 7.09 19a9.13 9.13 0 0 0 2.35-1.08 14.73 14.73 0 0 0 2.56 3.6 2.55 2.55 0 0 0 .53 1.13v.44c-.47.29-1.19.83-1.19 1.44a.56.56 0 0 0 .2.41 1 1 0 0 0 .7.21H13.35c.11-.05.7-.28.82-.79a.85.85 0 0 0-.16-.69 1.88 1.88 0 0 0-.22-1.78l-1.86-4.92a1.3 1.3 0 0 1 .65 0s3.93.49 6.25-1a10.79 10.79 0 0 0 1.81 1.6c0 .47 0 1.27-.34 1.56l-.62.55c-.11.08-1.37 1-1.17 2.18a1.47 1.47 0 0 0 .09 1.67.23.23 0 0 0 .11.08s.7.33 1.22-.59a1.24 1.24 0 0 0 .56-.94.74.74 0 0 0-.22-.46 1.19 1.19 0 0 1 .41-.47 19.27 19.27 0 0 0 2.2-2.32c.24.11.5.21.77.32a2.09 2.09 0 0 1 1.23 1.67l.31 1.95c-.46.41-1.16 1.14-1.08 1.76a.56.56 0 0 0 .19.41.74.74 0 0 0 .23.14v.11l.05-.1a1.83 1.83 0 0 0 1 0 1.33 1.33 0 0 0 .9-.41 1.08 1.08 0 0 0 .25-.85.38.38 0 0 0-.06-.16l.07-.07c.15-.19.29-.58 0-2 0-.54.12-3.07-1.44-4.37l-.09-.06s-.67-.35-.8-2c0-.28-.12-.77-.23-1.32 0-.13 0-.28-.08-.43a7.29 7.29 0 0 0 2 1.84l.15.1a3.86 3.86 0 0 0 2.48.73.38.38 0 0 0 .32-.18.39.39 0 0 0 0-.35"/>
</svg>
