<svg class="icon" xmlns="http://www.w3.org/2000/svg" viewBox="0 0 24 24">
  <path d="M21.94 21.36l-3.18-7.67a.39.39 0 0 0-.71.3l2.88 6.93-2.62-.76a.4.4 0 0 0-.45.18l-1.31 2.39-3.09-7.44a7.72 7.72 0 1 0-7.65-3l-3.75 9a.38.38 0 0 0 .46.52L5.61 21l1.56 2.8a.37.37 0 0 0 .33.2.39.39 0 0 0 .34-.24l3-7.16a.37.37 0 0 0-.2-.5.38.38 0 0 0-.5.2l-2.69 6.43-1.31-2.39a.4.4 0 0 0-.45-.18l-2.62.76L6.36 13A7.7 7.7 0 0 0 12 15.43h.68l3.46 8.36a.39.39 0 0 0 .34.24.37.37 0 0 0 .33-.2L18.39 21l3.09.9a.38.38 0 0 0 .46-.52zM5.05 7.72a7 7 0 1 1 7 7 7 7 0 0 1-7-7z"/>
  <path d="M16.49 6.27a.37.37 0 0 0-.3-.26l-2.58-.43-1.21-2.33a.38.38 0 0 0-.34-.2.4.4 0 0 0-.34.2l-1.2 2.33L7.94 6a.37.37 0 0 0-.3.26.38.38 0 0 0 .09.39l1.83 1.88-.39 2.59a.39.39 0 0 0 .55.4l2.34-1.17 2.34 1.17a.59.59 0 0 0 .17 0 .4.4 0 0 0 .23-.08.38.38 0 0 0 .15-.36l-.38-2.59 1.83-1.83a.4.4 0 0 0 .09-.39zm-2.6 1.85a.38.38 0 0 0-.11.33l.31 2.05-1.86-.92a.33.33 0 0 0-.17 0 .38.38 0 0 0-.17 0L10 10.5l.31-2.05a.44.44 0 0 0-.11-.33L8.79 6.64l2-.34a.39.39 0 0 0 .28-.2l1-1.84L13 6.1a.39.39 0 0 0 .28.2l2 .34z"/>
  <path d="M17.83 8.07a.38.38 0 0 0-.43.33 5.4 5.4 0 1 1 0-1.4.38.38 0 0 0 .43.33.39.39 0 0 0 .33-.43 6.19 6.19 0 1 0-6.13 7 6.2 6.2 0 0 0 6.13-5.4.38.38 0 0 0-.33-.43z"/>
</svg>
