<svg class="icon" xmlns="http://www.w3.org/2000/svg" viewBox="0 0 21.17 21.17"><path d="M5.88,7.75,6,7.8c.2.12.35.21.41.41.22.76,1.71,3.61,3.73,3.61S13.61,9,13.83,8.21c.05-.19.2-.29.41-.41l.07,0c.54-1,.45-1.42.39-1.57A.4.4,0,0,0,14.44,6a.47.47,0,0,1-.35-.46,8.14,8.14,0,0,0-.21-2.17A3.69,3.69,0,0,0,10.09.88,3.72,3.72,0,0,0,6.31,3.33,7.93,7.93,0,0,0,6.09,5.5.44.44,0,0,1,5.73,6a.41.41,0,0,0-.25.22c-.06.15-.15.59.4,1.57m4.21,4.95C7.66,12.7,6,9.78,5.55,8.59l-.07-.05a.78.78,0,0,1-.33-.28A2.77,2.77,0,0,1,4.69,5.8a1.23,1.23,0,0,1,.51-.56A8.83,8.83,0,0,1,5.46,3.1,4.61,4.61,0,0,1,10.09,0a4.61,4.61,0,0,1,4.64,3.1A8.73,8.73,0,0,1,15,5.24a1.24,1.24,0,0,1,.52.56A2.8,2.8,0,0,1,15,8.26a.81.81,0,0,1-.34.28l-.07.05c-.4,1.19-2.1,4.11-4.54,4.11"/><path d="M13,13.69a.45.45,0,0,1-.2,0,2.75,2.75,0,0,1-1.21-1,.44.44,0,0,1,.19-.59.44.44,0,0,1,.59.18,2.17,2.17,0,0,0,.84.63.44.44,0,0,1,.18.6.42.42,0,0,1-.39.23"/><path d="M10.7,21.17a61,61,0,0,1-9.78-.86.44.44,0,0,1-.37-.45,6.45,6.45,0,0,1,5-6.41A6.55,6.55,0,0,0,8,12.13a.44.44,0,0,1,.62.62,7.25,7.25,0,0,1-2.79,1.54c-2,.63-4.05,1.75-4.36,5.22a59.73,59.73,0,0,0,10.41.76.44.44,0,0,1,.46.43.45.45,0,0,1-.43.45l-1.2,0"/><path d="M14.44,14.88v4.85h5.29V14.88Zm5.29,5.73H14.44a.88.88,0,0,1-.89-.88V14.88a.89.89,0,0,1,.89-.88h5.29a.89.89,0,0,1,.89.88v4.85a.88.88,0,0,1-.89.88Z"/><path d="M19.29,16.88H14A.44.44,0,0,1,14,16h5.3a.44.44,0,0,1,0,.88"/><path d="M15,15.65a.45.45,0,0,1-.44-.45V13.44a.45.45,0,0,1,.89,0V15.2a.45.45,0,0,1-.45.45"/><path d="M18,15.65a.45.45,0,0,1-.44-.45V13.44a.45.45,0,0,1,.89,0V15.2a.45.45,0,0,1-.45.45"/></svg>
